<?xml version="1.0" encoding="utf-8"?>
<!-- Generator: Adobe Illustrator 25.4.1, SVG Export Plug-In . SVG Version: 6.00 Build 0)  -->
<svg version="1.1" id="Layer_1" xmlns="http://www.w3.org/2000/svg" xmlns:xlink="http://www.w3.org/1999/xlink" x="0px" y="0px"
	 viewBox="0 0 20 20" style="enable-background:new 0 0 20 20;" xml:space="preserve">
<style type="text/css">
	.st0{fill:#010101;}
</style>
<path class="st0" d="M0,10c0-1.81,0.45-3.49,1.34-5.02c0.89-1.53,2.11-2.75,3.64-3.64C6.51,0.45,8.19,0,10,0
	c1.81,0,3.49,0.45,5.02,1.34c1.53,0.89,2.75,2.11,3.64,3.64C19.55,6.51,20,8.19,20,10s-0.45,3.49-1.34,5.02
	c-0.89,1.53-2.11,2.75-3.64,3.64C13.49,19.55,11.81,20,10,20c-1.81,0-3.49-0.45-5.02-1.34c-1.53-0.89-2.75-2.11-3.64-3.64
	C0.45,13.49,0,11.81,0,10z M1.66,10c0,2.08,0.7,3.91,2.1,5.5c0.64-1.25,1.65-2.45,3.04-3.58c1.39-1.13,2.74-1.85,4.06-2.14
	c-0.2-0.47-0.39-0.89-0.58-1.26c-2.29,0.73-4.77,1.1-7.44,1.1c-0.52,0-0.91-0.01-1.16-0.02c0,0.05,0,0.12-0.01,0.2
	C1.66,9.88,1.66,9.95,1.66,10z M1.92,7.94c0.29,0.03,0.73,0.04,1.3,0.04c2.23,0,4.34-0.3,6.34-0.9c-1.01-1.8-2.13-3.3-3.34-4.5
	C5.17,3.11,4.26,3.85,3.51,4.8C2.76,5.75,2.23,6.79,1.92,7.94z M4.9,16.58c1.51,1.17,3.21,1.76,5.1,1.76c0.99,0,1.97-0.19,2.94-0.56
	c-0.27-2.28-0.79-4.49-1.56-6.62c-1.23,0.27-2.46,0.94-3.71,2.02C6.42,14.26,5.5,15.39,4.9,16.58z M7.96,1.94
	c1.17,1.21,2.26,2.73,3.26,4.54c1.81-0.76,3.18-1.73,4.1-2.9C13.77,2.3,12,1.66,10,1.66C9.32,1.66,8.64,1.75,7.96,1.94z M11.94,7.9
	c0.2,0.43,0.43,0.97,0.68,1.62c0.99-0.09,2.06-0.14,3.22-0.14c0.83,0,1.65,0.02,2.46,0.06c-0.11-1.81-0.76-3.43-1.96-4.84
	C15.47,5.89,14.01,6.99,11.94,7.9z M13.12,10.92c0.68,1.97,1.14,4,1.38,6.08c1.05-0.68,1.91-1.55,2.58-2.62
	c0.67-1.07,1.07-2.22,1.2-3.46c-0.97-0.07-1.86-0.1-2.66-0.1C14.89,10.82,14.05,10.85,13.12,10.92z"/>
</svg>
