<?xml version="1.0" encoding="utf-8"?>
<!-- Generator: Adobe Illustrator 25.4.1, SVG Export Plug-In . SVG Version: 6.00 Build 0)  -->
<svg version="1.1" id="Layer_1" xmlns="http://www.w3.org/2000/svg" xmlns:xlink="http://www.w3.org/1999/xlink" x="0px" y="0px"
	 viewBox="0 0 20 20" style="enable-background:new 0 0 20 20;" xml:space="preserve">
<path d="M10,0C15.53,0,20,4.47,20,10c0,5.52-4.48,10-10,10C4.48,20,0,15.52,0,10C0,4.47,4.47,0,10,0z M15.6,14.7
	c0.01-0.07,0.02-0.12,0.02-0.18c0-1.26,0.02-2.52-0.01-3.77c-0.01-0.44-0.07-0.89-0.2-1.31c-0.28-0.92-0.91-1.5-1.86-1.66
	c-1-0.17-1.86,0.06-2.48,0.93c-0.02,0.03-0.04,0.05-0.1,0.12c0-0.35,0-0.64,0-0.93c-0.77,0-1.5,0-2.24,0c0,2.27,0,4.53,0,6.78
	c0.76,0,1.49,0,2.25,0c0-0.09,0-0.17,0-0.25c0-1.19,0-2.38,0-3.58c0-0.35,0.09-0.66,0.32-0.92c0.32-0.37,0.73-0.49,1.2-0.39
	c0.46,0.1,0.69,0.42,0.78,0.84c0.06,0.25,0.08,0.52,0.08,0.78c0.01,1.09,0,2.18,0,3.27c0,0.08,0.01,0.17,0.01,0.25
	C14.12,14.7,14.85,14.7,15.6,14.7z M7.44,7.92c-0.76,0-1.5,0-2.24,0c0,2.27,0,4.52,0,6.78c0.75,0,1.49,0,2.24,0
	C7.44,12.44,7.44,10.18,7.44,7.92z M6.31,6.97c0.63,0,1.11-0.33,1.25-0.85c0.17-0.63-0.17-1.24-0.78-1.43
	C6.06,4.46,5.33,4.78,5.12,5.4C4.84,6.21,5.42,6.97,6.31,6.97z"/>
</svg>
