<?xml version="1.0" encoding="utf-8"?>
<!-- Generator: Adobe Illustrator 25.4.1, SVG Export Plug-In . SVG Version: 6.00 Build 0)  -->
<svg version="1.1" id="Layer_1" xmlns="http://www.w3.org/2000/svg" xmlns:xlink="http://www.w3.org/1999/xlink" x="0px" y="0px"
	 viewBox="0 0 20 20" style="enable-background:new 0 0 20 20;" xml:space="preserve">
<path d="M15.87,13.59c0-0.13-0.01-0.26-0.03-0.42c-0.13-1.27-0.64-2.42-1.48-3.36c0.28-0.32,0.53-0.67,0.74-1.04
	c0.51-0.88,0.78-1.88,0.78-2.9V5.87l0-0.01l0-0.01c0-1.57-0.6-3.05-1.71-4.15C13.46,1,12.57,0.48,11.61,0.22
	c-0.14-0.04-0.27-0.07-0.39-0.1c-0.12-0.03-0.26-0.05-0.39-0.07l-0.03,0l-0.01,0c-0.12-0.01-0.24-0.03-0.36-0.03
	C10.32,0.01,10.21,0,10.11,0l-0.02,0c-0.02,0-0.04,0-0.06,0L9.98,0L9.96,0l0,0L9.92,0L9.9,0C9.66,0.01,9.41,0.03,9.16,0.07
	c-0.72,0.11-1.41,0.34-2.05,0.7C6.69,1,6.31,1.28,5.96,1.61l-0.4,0.37l0.38,0.38l2.02,2.02L8.3,4.72l0.37-0.31
	C8.7,4.39,8.72,4.37,8.75,4.35c0.08-0.06,0.17-0.12,0.26-0.17C9.04,4.16,9.07,4.15,9.1,4.13c0.1-0.05,0.21-0.09,0.32-0.12
	C9.45,4,9.49,3.99,9.52,3.99c0.13-0.03,0.26-0.04,0.39-0.05l0.04,0c0.03,0,0.07,0,0.1,0c0.06,0,0.13,0.01,0.19,0.02
	c0.1,0.01,0.19,0.03,0.29,0.06c0.02,0.01,0.04,0.01,0.06,0.02c0.08,0.03,0.15,0.06,0.22,0.09c0.07,0.03,0.14,0.07,0.21,0.12
	c0.03,0.02,0.05,0.03,0.08,0.05c0.01,0.01,0.03,0.02,0.04,0.03c0.03,0.02,0.06,0.04,0.08,0.07c0.04,0.04,0.08,0.07,0.12,0.1
	c0.36,0.38,0.56,0.87,0.56,1.38c0,0.59-0.26,1.14-0.72,1.52c-0.07,0.06-0.14,0.11-0.22,0.16c-0.04,0.03-0.09,0.05-0.14,0.08
	c-0.23,0.12-0.49,0.19-0.75,0.21c-0.04,0-0.09,0.01-0.13,0.01l-0.04,0l-0.01,0c-0.24,0-0.49,0.02-0.74,0.06
	C8.46,8.02,7.8,8.24,7.2,8.57c-1.84,1-3.01,2.94-3.08,5.06l0,0.02v0.05v5.77V20h0.52h0.33h0.39h0.33h0.39h0.33H6.8h0.33h0.35h0.52
	v-0.52V13.8c0-0.15,0.02-0.3,0.06-0.45c0.22-0.89,1.01-1.52,1.92-1.52c0.1,0,0.19,0.01,0.29,0.02c0.09,0.01,0.19,0.04,0.28,0.06
	c0.1,0.03,0.19,0.07,0.28,0.11c0.07,0.04,0.14,0.07,0.21,0.11c0.03,0.02,0.05,0.04,0.08,0.05c0.01,0.01,0.02,0.02,0.03,0.02
	l0.01,0.01c0.03,0.02,0.06,0.04,0.08,0.07c0.04,0.03,0.08,0.07,0.12,0.11c0.34,0.34,0.55,0.78,0.59,1.25l0.04,0.48h0.48h0.33h0.39
	h0.33h0.39h0.33h0.39h0.33h0.36h0.54L15.87,13.59z"/>
</svg>
